<?xml version="1.0" encoding="UTF-8"?>
<svg xmlns="http://www.w3.org/2000/svg" xmlns:xlink="http://www.w3.org/1999/xlink" viewBox="0 0 32 32" version="1.1" fill="#f90006"><g id="surface1" fill="#f90006"><path style=" " d="M 25.1875 4.53125 L 23.40625 5.46875 C 23.40625 5.46875 26 10.40625 26 16 C 26 21.59375 23.40625 26.53125 23.40625 26.53125 L 25.1875 27.46875 C 25.1875 27.46875 28 22.207031 28 16 C 28 9.792969 25.1875 4.53125 25.1875 4.53125 Z M 20.78125 6.9375 L 19 7.875 C 19 7.875 21 11.703125 21 16 C 21 20.296875 19 24.125 19 24.125 L 20.78125 25.0625 C 20.78125 25.0625 23 20.90625 23 16 C 23 11.09375 20.78125 6.9375 20.78125 6.9375 Z M 16.375 9.53125 L 14.625 10.46875 C 14.625 10.46875 16 13.113281 16 16 C 16 17.765625 15.558594 19.183594 15.15625 20.21875 L 6.71875 11.3125 L 5.75 10.3125 L 5.125 11.53125 C 5.125 11.53125 4 13.582031 4 16 C 4 18.417969 5.125 20.46875 5.125 20.46875 L 6.875 19.53125 C 6.875 19.53125 6 17.78125 6 16 C 6 15.210938 6.183594 14.472656 6.375 13.84375 L 14.78125 22.6875 L 15.71875 23.6875 L 16.375 22.46875 C 16.375 22.46875 18 19.511719 18 16 C 18 12.488281 16.375 9.53125 16.375 9.53125 Z " fill="#f90006"/></g></svg>
