<?xml version="1.0" encoding="UTF-8"?>
<svg xmlns="http://www.w3.org/2000/svg" xmlns:xlink="http://www.w3.org/1999/xlink" viewBox="0 0 32 32" version="1.1" fill="#f90006"><g id="surface1" fill="#f90006"><path style=" " d="M 3.71875 2.28125 L 2.28125 3.71875 L 28.28125 29.71875 L 29.71875 28.28125 L 20 18.5625 L 20 17 L 27.125 17 L 28.625 14 L 31 14 L 31 9 L 29 9 L 29 8 L 27 8 L 27 9 L 10.4375 9 Z M 3 8 L 4 10 L 4 12.78125 C 3.917969 13.042969 3.671875 13.5625 3 13.5625 L 2 13.5625 L 2 14.5625 C 2 15.554688 3.015625 17.0625 4.5625 17.0625 C 4.792969 17.0625 4.941406 17.199219 5 17.28125 C 5.058594 17.359375 5.128906 17.546875 5.03125 17.84375 L 3.375 24.21875 C 3.144531 25.195313 3.300781 26.207031 3.8125 26.96875 C 4.289063 27.675781 5.046875 28.125 5.875 28.25 L 9.46875 28.96875 C 9.652344 29 9.84375 29 10.03125 29 C 10.796875 29 11.546875 28.765625 12.09375 28.3125 C 12.660156 27.839844 12.988281 27.160156 13 26.4375 L 13.09375 23.1875 C 13.144531 23.089844 13.246094 23 13.3125 23 L 16 23 C 16.804688 23 17.558594 22.75 18.1875 22.34375 L 16.6875 20.875 C 16.46875 20.957031 16.246094 21 16 21 L 14.4375 21 L 14.65625 19.15625 C 14.902344 19.332031 15.15625 19.472656 15.40625 19.59375 L 12.90625 17.0625 L 12.375 21.21875 C 11.765625 21.507813 11.296875 22.046875 11.125 22.75 L 11 26.40625 C 10.996094 26.507813 10.96875 26.621094 10.8125 26.75 C 10.578125 26.945313 10.160156 27.054688 9.8125 27 L 6.21875 26.28125 C 5.902344 26.230469 5.632813 26.085938 5.46875 25.84375 C 5.265625 25.542969 5.214844 25.132813 5.3125 24.71875 L 6.9375 18.40625 C 7.203125 17.636719 7.097656 16.785156 6.625 16.125 C 6.175781 15.492188 5.457031 15.097656 4.6875 15.0625 C 5.476563 14.519531 5.855469 13.671875 5.96875 13.125 L 6 11 L 6.8125 11 L 3.8125 8 Z M 16 11 L 29 11 L 29 12 L 18 12 L 18 14 L 26.40625 14 L 25.90625 15 L 16.4375 15 L 13.4375 12 L 16 12 Z " fill="#f90006"/></g></svg>
