<?xml version="1.0" encoding="UTF-8"?>
<svg xmlns="http://www.w3.org/2000/svg" xmlns:xlink="http://www.w3.org/1999/xlink" viewBox="0 0 32 32" version="1.1" fill="#f90006"><g id="surface1" fill="#f90006"><path style=" " d="M 3.71875 2.28125 L 2.28125 3.71875 L 28.28125 29.71875 L 29.71875 28.28125 L 24.625 23.1875 C 24.734375 22.78125 24.835938 22.378906 24.90625 22.03125 C 27.917969 21.171875 30 19.800781 30 17.96875 C 30 16.253906 28.210938 14.878906 24.875 13.9375 C 23.777344 10.078125 22.53125 5.75 19.46875 5.75 C 19.007813 5.75 18.523438 5.863281 18 6 C 17.398438 6.15625 16.710938 6.34375 16 6.34375 C 15.296875 6.34375 14.628906 6.152344 14.03125 6 C 13.507813 5.863281 13.007813 5.75 12.53125 5.75 C 11.175781 5.75 10.152344 6.605469 9.34375 7.90625 Z M 12.53125 7.75 C 12.753906 7.75 13.128906 7.835938 13.53125 7.9375 C 14.207031 8.113281 15.042969 8.34375 16 8.34375 C 16.960938 8.34375 17.816406 8.113281 18.5 7.9375 C 18.894531 7.835938 19.257813 7.75 19.46875 7.75 C 21.046875 7.75 22.179688 11.710938 23 14.59375 L 23.25 15.5 C 23.117188 15.820313 22.125 16.277344 17.8125 16.375 L 10.8125 9.375 L 10.8125 9.34375 C 11.320313 8.386719 11.894531 7.75 12.53125 7.75 Z M 7.6875 11.875 C 7.476563 12.558594 7.277344 13.257813 7.09375 13.9375 C 3.773438 14.878906 2 16.257813 2 17.96875 C 2 19.785156 4.054688 21.140625 7.03125 22 C 7.324219 23.882813 8.113281 27.03125 10 27.03125 C 13.117188 27.03125 14.179688 25.09375 15.875 25.09375 C 17.570313 25.09375 19.011719 27.03125 21.78125 27.03125 C 22.082031 27.03125 22.339844 26.925781 22.59375 26.78125 L 20.59375 24.78125 C 20.324219 24.851563 20.027344 24.902344 19.65625 24.84375 C 18.582031 24.671875 17.8125 24.132813 17.8125 23.6875 C 17.8125 23.5 18.28125 23.332031 18.9375 23.15625 L 16.90625 21.09375 C 16.609375 21.101563 16.308594 21.125 16 21.125 C 8.234375 21.125 4 19.035156 4 17.96875 C 4 17.5625 4.792969 16.789063 6.84375 16.09375 C 7.441406 17.890625 10.488281 18.300781 14.15625 18.375 L 12.0625 16.25 C 9.621094 16.066406 8.914063 15.726563 8.75 15.46875 L 8.8125 15.25 C 8.957031 14.714844 9.101563 14.128906 9.28125 13.5 Z M 25.15625 16.09375 C 27.207031 16.789063 28 17.5625 28 17.96875 C 28 18.707031 25.917969 19.945313 22.0625 20.625 L 19.75 18.3125 C 22.351563 18.152344 24.644531 17.640625 25.15625 16.09375 Z M 9.28125 22.53125 C 11.003906 22.769531 13.5625 23.242188 13.5625 23.6875 C 13.5625 24.132813 12.792969 24.671875 11.71875 24.84375 C 9.578125 25.1875 9.28125 22.976563 9.28125 22.53125 Z " fill="#f90006"/></g></svg>
