<?xml version="1.0" encoding="UTF-8"?>
<svg xmlns="http://www.w3.org/2000/svg" xmlns:xlink="http://www.w3.org/1999/xlink" viewBox="0 0 32 32" version="1.1" fill="#f90006"><g id="surface1" fill="#f90006"><path style=" " d="M 28 3 L 28 4 L 29 4 L 29 3 Z M 28 4 L 27 4 L 27 5 L 28 5 Z M 28 5 L 28 6 L 29 6 L 29 5 Z M 27 5 L 25 5 L 25 6 L 23 6 L 23 8 L 24 8 L 24 7 L 25 7 L 25 8 L 26 8 L 26 6 L 27 6 Z M 25 8 L 24 8 L 24 9 L 25 9 Z M 24 9 L 23 9 L 23 8 L 22 8 L 22 9 L 21 9 L 21 9.546875 C 19.097656 7.964844 16.664063 7 14 7 C 7.933594 7 3 11.933594 3 18 C 3 24.066406 7.933594 29 14 29 C 20.066406 29 25 24.066406 25 18 C 25 15.660156 24.25 13.5 23 11.71875 L 23 11 L 24 11 Z M 14 9 C 16.128906 9 18.078125 9.757813 19.621094 11 L 19 11 L 19 12 L 18 12 L 18 13 L 17 13 C 16.433594 14.105469 14.136719 17.902344 13.65625 18.96875 C 13.65625 18.96875 10.515625 15 8.628906 15 C 8.628906 15 8 14.9375 8 15.628906 C 8 16.320313 8.628906 16.886719 8.628906 16.886719 C 8.628906 16.886719 11.203125 18.65625 12.398438 22.742188 C 12.527344 23.183594 12.902344 24 13.96875 24 C 14.601563 24 15.234375 23.527344 15.542969 22.742188 C 17.417969 17.957031 19.582031 15.167969 20 14.5 L 20 14 L 21 14 L 21 13 L 20 13 L 20 12 L 21 12 L 21 13 L 21.460938 13 C 22.425781 14.433594 23 16.148438 23 18 C 23 22.964844 18.964844 27 14 27 C 9.035156 27 5 22.964844 5 18 C 5 13.035156 9.035156 9 14 9 Z M 21 10 L 22 10 L 22 11 L 21 11 Z " fill="#f90006"/></g></svg>
