<?xml version="1.0" encoding="UTF-8"?>
<svg xmlns="http://www.w3.org/2000/svg" xmlns:xlink="http://www.w3.org/1999/xlink" viewBox="0 0 32 32" version="1.1" fill="#f90006"><g id="surface1" fill="#f90006"><path style=" " d="M 15.5 2 C 8.078125 2 2 7.808594 2 15 C 2 17.503906 2.40625 18.863281 3.03125 21.25 L 3.15625 21.75 L 24.25 30.1875 L 29.71875 24.71875 L 29.96875 24.4375 L 30 24.0625 C 30 24.0625 30.136719 21.210938 28.96875 14.8125 C 28.34375 11.386719 26.902344 8.230469 24.625 5.875 C 22.347656 3.519531 19.214844 2 15.5 2 Z M 15.5 4 C 18.6875 4 21.238281 5.234375 23.1875 7.25 C 24.207031 8.304688 25.058594 9.578125 25.71875 11 L 15.59375 11 C 14.890625 10.390625 13.996094 10 13 10 C 10.800781 10 9 11.800781 9 14 C 9 16.199219 10.800781 18 13 18 C 13.46875 18 13.925781 17.902344 14.34375 17.75 C 14.34375 17.75 20.226563 22.859375 26.96875 24.59375 L 23.75 27.8125 L 4.84375 20.25 C 4.3125 18.242188 4 17.101563 4 15 C 4 8.9375 9.113281 4 15.5 4 Z M 13 12 C 14.117188 12 15 12.882813 15 14 C 15 15.117188 14.117188 16 13 16 C 11.882813 16 11 15.117188 11 14 C 11 12.882813 11.882813 12 13 12 Z M 13 13 C 12.449219 13 12 13.449219 12 14 C 12 14.550781 12.449219 15 13 15 C 13.550781 15 14 14.550781 14 14 C 14 13.449219 13.550781 13 13 13 Z M 16.84375 13 L 26.5 13 C 26.726563 13.710938 26.894531 14.4375 27.03125 15.1875 C 27.796875 19.371094 27.96875 21.671875 28 22.78125 C 22.296875 21.472656 16.929688 17.253906 16.03125 16.53125 C 16.617188 15.835938 17 14.972656 17 14 C 17 13.65625 16.925781 13.320313 16.84375 13 Z " fill="#f90006"/></g></svg>
