<?xml version="1.0" encoding="UTF-8"?>
<svg xmlns="http://www.w3.org/2000/svg" xmlns:xlink="http://www.w3.org/1999/xlink" viewBox="0 0 32 32" version="1.1" fill="#f90006"><g id="surface1" fill="#f90006"><path style=" " d="M 29 4 C 26.070313 4 23.9375 6.082031 22.5625 8 C 22.40625 8.21875 22.292969 8.414063 22.15625 8.625 C 20.140625 6.402344 17.230469 5 14 5 C 7.9375 5 3 9.9375 3 16 C 3 20.773438 6.054688 24.824219 10.3125 26.34375 L 10.40625 26.5625 C 10.46875 26.535156 10.53125 26.5 10.59375 26.46875 C 11.664063 26.816406 12.816406 27 14 27 C 16.585938 27 18.964844 26.09375 20.84375 24.59375 C 21.050781 24.898438 21.273438 25.175781 21.53125 25.4375 C 22.4375 26.347656 23.664063 27 25 27 L 25 30 L 27 30 L 27 25 L 25 25 C 24.335938 25 23.5625 24.628906 22.96875 24.03125 C 22.375 23.433594 22 22.65625 22 22 L 22 18.96875 L 21.25 18.78125 C 21.25 18.78125 20.160156 18.503906 19.59375 18.34375 C 19.515625 18.320313 19.570313 18.34375 19.5625 18.3125 C 19.554688 18.28125 19.554688 18.167969 19.625 18.03125 C 19.957031 17.378906 22.3125 12.625 22.3125 12.625 L 22.3125 12.59375 L 22.34375 12.53125 C 22.34375 12.53125 22.988281 10.859375 24.1875 9.1875 C 25.386719 7.515625 27.054688 6 29 6 Z M 14 7 C 16.894531 7 19.449219 8.351563 21.09375 10.46875 C 20.742188 11.183594 20.550781 11.671875 20.53125 11.71875 C 20.53125 11.722656 20.46875 11.8125 20.46875 11.8125 C 20.394531 11.964844 18.128906 16.539063 17.84375 17.09375 C 17.5625 17.640625 17.445313 18.269531 17.625 18.875 C 17.804688 19.480469 18.347656 20.054688 19.03125 20.25 C 19.375 20.347656 19.628906 20.402344 20 20.5 L 20 22 C 20 22.222656 20.03125 22.441406 20.0625 22.65625 C 18.464844 24.109375 16.335938 25 14 25 C 13.5 25 13.007813 24.953125 12.53125 24.875 C 13.171875 24.054688 13.5625 23.066406 13.5625 22 L 13.5625 20.5 C 13.933594 20.402344 14.1875 20.347656 14.53125 20.25 C 15.214844 20.054688 15.726563 19.480469 15.90625 18.875 C 16.085938 18.269531 16 17.640625 15.71875 17.09375 C 15.429688 16.527344 13.03125 11.71875 13.03125 11.71875 C 12.957031 11.375 12.5 9.449219 10.875 7.5625 C 11.847656 7.203125 12.898438 7 14 7 Z M 9.03125 8.5 C 10.738281 10.285156 11.15625 12.375 11.15625 12.375 L 11.1875 12.5 L 11.25 12.625 C 11.25 12.625 13.605469 17.378906 13.9375 18.03125 C 14.007813 18.167969 14.007813 18.28125 14 18.3125 C 13.992188 18.34375 14.046875 18.320313 13.96875 18.34375 C 13.402344 18.503906 12.28125 18.78125 12.28125 18.78125 L 11.5625 18.96875 L 11.5625 22 C 11.5625 22.726563 11.0625 23.609375 10.375 24.21875 C 7.210938 22.824219 5 19.6875 5 16 C 5 12.859375 6.605469 10.109375 9.03125 8.5 Z M 8 13 C 7.449219 13 7 13.449219 7 14 C 7 14.550781 7.449219 15 8 15 C 8.550781 15 9 14.550781 9 14 C 9 13.449219 8.550781 13 8 13 Z M 25 13 C 24.449219 13 24 13.449219 24 14 C 24 14.550781 24.449219 15 25 15 C 25.550781 15 26 14.550781 26 14 C 26 13.449219 25.550781 13 25 13 Z " fill="#f90006"/></g></svg>
